# ProBuilder 6.0.4
# https://unity3d.com/unity/features/worldbuilding/probuilder
# 1/26/2025 9:02:03 PM

mtllib ./Labyrinth.mtl
o Labyrinth

g Labyrinth
v 0.5 -1 31.5
v -0.5 -1 31.5
v 0.5 1 31.5
v -0.5 1 31.5
v -0.5 -1 -0.5
v 0.5 -1 -0.5
v -0.5 1 -0.5
v 0.5 1 -0.5
v -0.5 -1 0.5
v -0.5 1 0.5
v 31.5 -1 -0.5
v 31.5 -1 0.5
v 31.5 1 0.5
v 31.5 1 -0.5
v 0.5 1 0.5
v 0.5 -2 -0.5
v -0.5 -2 -0.5
v -0.5 -2 0.5
v 0.5 -2 0.5
v -0.5 -1 30.5
v -0.5 1 30.5
v 31.5 -1 31.5
v 31.5 1 31.5
v 31.5 1 30.5
v 31.5 -1 30.5
v 0.5 1 30.5
v 0.5 -1 0.5
v 0.5 -1 30.5
v -0.5 -2 30.5
v 0.5 -2 30.5
v -0.5 -2 31.5
v 0.5 -2 31.5
v 31.5 -2 31.5
v 31.5 -2 30.5
v 31.5 -2 0.5
v 31.5 -2 -0.5
v 30.5 -1 30.5
v 30.5 -1 0.5
v 30.5 -2 30.5
v 30.5 -2 31.5
v 30.5 -1 -0.5
v 30.5 -2 -0.5
v 30.5 -2 0.5
v 30.5 1 0.5
v 30.5 1 -0.5
v 30.5 -1 31.5
v 30.5 1 31.5
v 30.5 1 30.5

vt 0.5 -1
vt -0.5 -1
vt 0.5 1
vt -0.5 1
vt 0.5 0.5
vt 0.5 -0.5
vt -0.5 -0.5
vt -0.5 0.5
vt 31.5 -1
vt 30.5 -1
vt 30.5 1
vt 31.5 1
vt -31.5 -1
vt -31.5 1
vt -30.5 1
vt -30.5 -1
vt -0.5 30.5
vt 0.5 30.5
vt -0.5 31.5
vt 0.5 31.5
vt 30.5 -2
vt 31.5 -2
vt -0.5 -2
vt 0.5 -2
vt -31.5 -2
vt -30.5 -2
vt -30.5 30.5
vt -30.5 0.5
vt 30.5 30.5
vt 30.5 31.5
vt 30.5 0.5
vt 30.5 -0.5
vt -30.5 -0.5
vt -30.5 31.5
vt -31.5 30.5
vt -31.5 0.5
vt 31.5 30.5
vt 31.5 31.5
vt 31.5 0.5
vt 31.5 -0.5
vt -31.5 -0.5
vt -31.5 31.5

vn 0 0 1
vn 0 0 -1
vn -1 0 0
vn 1 0 0
vn 0 1 0
vn 0 -1 0

usemtl ProBuilderDefault
f 3/3/1 4/4/1 2/2/1 1/1/1
f 7/3/2 8/4/2 6/2/2 5/1/2
f 10/3/3 7/4/3 5/2/3 9/1/3
f 11/1/4 14/3/4 13/4/4 12/2/4
f 10/5/5 15/8/5 8/7/5 7/6/5
f 16/6/6 19/5/6 18/8/6 17/7/6
f 4/12/3 21/11/3 20/10/3 2/9/3
f 21/11/3 10/3/3 9/1/3 20/10/3
f 25/16/4 24/15/4 23/14/4 22/13/4
f 27/2/4 15/4/4 26/15/4 28/16/4
f 21/18/5 26/17/5 15/8/5 10/5/5
f 4/20/5 3/19/5 26/17/5 21/18/5
f 19/5/6 30/18/6 29/17/6 18/8/6
f 30/18/6 32/20/6 31/19/6 29/17/6
f 29/21/3 31/22/3 2/9/3 20/10/3
f 31/23/1 32/24/1 1/1/1 2/2/1
f 33/25/4 34/26/4 25/16/4 22/13/4
f 34/26/4 35/23/4 12/2/4 25/16/4
f 18/24/3 29/21/3 20/10/3 9/1/3
f 35/23/4 36/24/4 11/1/4 12/2/4
f 17/23/3 18/24/3 9/1/3 5/2/3
f 16/23/2 17/24/2 5/1/2 6/2/2
f 37/27/5 38/28/5 27/8/5 28/17/5
f 39/29/6 40/30/6 32/20/6 30/18/6
f 41/16/2 42/26/2 16/23/2 6/2/2
f 43/31/6 39/29/6 30/18/6 19/5/6
f 42/32/6 43/31/6 19/5/6 16/6/6
f 38/10/1 44/11/1 15/3/1 27/1/1
f 44/28/5 45/33/5 8/7/5 15/8/5
f 45/15/2 41/16/2 6/2/2 8/4/2
f 40/21/1 46/10/1 1/1/1 32/24/1
f 46/10/1 47/11/1 3/3/1 1/1/1
f 47/34/5 48/27/5 26/17/5 3/19/5
f 48/15/2 37/16/2 28/2/2 26/4/2
f 24/35/5 13/36/5 44/28/5 48/27/5
f 34/37/6 33/38/6 40/30/6 39/29/6
f 11/13/2 36/25/2 42/26/2 41/16/2
f 35/39/6 34/37/6 39/29/6 43/31/6
f 36/40/6 35/39/6 43/31/6 42/32/6
f 13/36/5 14/41/5 45/33/5 44/28/5
f 14/14/2 11/13/2 41/16/2 45/15/2
f 33/22/1 22/9/1 46/10/1 40/21/1
f 22/9/1 23/12/1 47/11/1 46/10/1
f 23/42/5 24/35/5 48/27/5 47/34/5
f 48/11/3 44/3/3 38/1/3 37/10/3
f 24/12/1 48/11/1 37/10/1 25/9/1
f 44/15/2 13/14/2 12/13/2 38/16/2
f 13/4/4 24/15/4 25/16/4 12/2/4

