# ProBuilder 5.2.4
# https://unity3d.com/unity/features/worldbuilding/probuilder
# 5/6/2025 8:06:07 PM

mtllib ./Obstacle_D_03.mtl
o Obstacle_D_03

g Obstacle_D_03
v 18.5 0 16.5
v 19.5 0 16.5
v 18.5 2 16.5
v 19.5 2 16.5
v 19.5 0 18.5
v 19.5 2 18.5
v 19.5 0 19.5
v 18.5 0 19.5
v 19.5 2 19.5
v 18.5 2 19.5
v 18.5 0 18.5
v 18.5 2 18.5
v 16.5 0 18.5
v 16.5 2 18.5
v 16.5 0 19.5
v 16.5 2 19.5

vt 1 0
vt 0 0
vt 1 2
vt 0 2
vt 3 0
vt 3 2
vt -1 0
vt -1 2
vt -3 0
vt -3 2
vt -1 3
vt 0 3
vt -1 1
vt 0 1
vt 1 1
vt 1 3
vt 3 1
vt -3 1

vn 0 0 -1
vn 1 0 0
vn 0 0 1
vn -1 0 0
vn 0 1 0
vn 0 -1 0

usemtl GrayGreyboxing
f 3/3/1 4/4/1 2/2/1 1/1/1
f 4/6/2 6/3/2 5/1/2 2/5/2
f 9/4/3 10/8/3 8/7/3 7/2/3
f 12/8/4 3/10/4 1/9/4 11/7/4
f 12/13/5 6/14/5 4/12/5 3/11/5
f 1/16/6 2/12/6 5/14/6 11/15/6
f 7/2/6 8/1/6 11/15/6 5/14/6
f 9/4/2 7/2/2 5/1/2 6/3/2
f 15/2/4 16/4/4 14/8/4 13/7/4
f 10/7/5 9/2/5 6/14/5 12/13/5
f 13/5/1 14/6/1 12/3/1 11/1/1
f 15/5/6 13/17/6 11/15/6 8/1/6
f 14/18/5 16/9/5 10/7/5 12/13/5
f 16/10/3 15/9/3 8/7/3 10/8/3

