# ProBuilder 5.2.4
# https://unity3d.com/unity/features/worldbuilding/probuilder
# 5/6/2025 8:06:51 PM

mtllib ./Obstacle_E_02.mtl
o Obstacle_E_02

g Obstacle_E_02
v 3.5 0 21.5
v 2.5 0 21.5
v 3.5 2 21.5
v 2.5 2 21.5
v 2.5 0 20.5
v 2.5 0 14.5
v 2.5 2 20.5
v 2.5 2 14.5
v 3.5 0 14.5
v 3.5 2 14.5
v 3.5 0 20.5
v 3.5 2 20.5
v 10.5 2 20.5
v 10.5 0 20.5
v 10.5 2 21.5
v 10.5 0 21.5

vt 1 0
vt 0 0
vt 1 2
vt 0 2
vt 6 0
vt 6 2
vt -1 0
vt -1 2
vt -6 0
vt -6 2
vt -1 6
vt 0 6
vt 1 6
vt 1 7
vt 0 7
vt -7 2
vt -7 0
vt 7 0
vt 7 2
vt -1 7
vt -8 2
vt -8 0
vt -8 7
vt -8 6
vt 8 6
vt 8 7
vt 8 0
vt 8 2

vn 0 0 1
vn -1 0 0
vn 0 0 -1
vn 1 0 0
vn 0 1 0
vn 0 -1 0

usemtl GrayGreyboxing
f 3/3/1 4/4/1 2/2/1 1/1/1
f 7/6/2 8/4/2 6/2/2 5/5/2
f 8/4/3 10/8/3 9/7/3 6/2/3
f 10/4/4 12/10/4 11/9/4 9/2/4
f 10/7/5 8/2/5 7/12/5 12/11/5
f 11/13/6 5/12/6 6/2/6 9/1/6
f 1/14/6 2/15/6 5/12/6 11/13/6
f 15/16/4 16/17/4 14/9/4 13/10/4
f 2/18/2 4/19/2 7/6/2 5/5/2
f 4/15/5 3/20/5 12/11/5 7/12/5
f 13/21/3 14/22/3 11/7/3 12/8/3
f 15/23/5 13/24/5 12/11/5 3/20/5
f 14/25/6 16/26/6 1/14/6 11/13/6
f 16/27/1 15/28/1 3/3/1 1/1/1

