# ProBuilder 5.2.4
# https://unity3d.com/unity/features/worldbuilding/probuilder
# 5/6/2025 8:05:53 PM

mtllib ./Obstacle_C_02.mtl
o Obstacle_C_02

g Obstacle_C_02
v 4.5 0 5.5
v 3.5 0 5.5
v 4.5 2 5.5
v 3.5 2 5.5
v 3.5 0 0
v 3.5 2 0
v 4.5 0 0
v 4.5 2 0

vt 1 0
vt 0 0
vt 1 2
vt 0 2
vt 5 0
vt -0.5 0
vt 5 2
vt -0.5 2
vt -1 0
vt -1 2
vt 0.5 0
vt -5 0
vt 0.5 2
vt -5 2
vt -1 5
vt 0 5
vt -1 -0.5
vt 0 -0.5
vt 1 -0.5
vt 1 5

vn 0 0 1
vn -1 0 0
vn 0 0 -1
vn 1 0 0
vn 0 1 0
vn 0 -1 0

usemtl GrayGreyboxing
f 3/3/1 4/4/1 2/2/1 1/1/1
f 4/7/2 6/8/2 5/6/2 2/5/2
f 6/4/3 8/10/3 7/9/3 5/2/3
f 8/13/4 3/14/4 1/12/4 7/11/4
f 8/17/5 6/18/5 4/16/5 3/15/5
f 1/20/6 2/16/6 5/18/6 7/19/6

