# ProBuilder 5.2.4
# https://unity3d.com/unity/features/worldbuilding/probuilder
# 5/6/2025 8:05:38 PM

mtllib ./Obstacle_B_05.mtl
o Obstacle_B_05

g Obstacle_B_05
v 12.5 0 12.5
v 11.5 0 12.5
v 12.5 2 12.5
v 11.5 2 12.5
v 4.5 0 12.5
v 4.5 0 11.5
v 4.5 2 12.5
v 4.5 2 11.5
v 11.5 0 3.5
v 12.5 0 3.5
v 11.5 2 3.5
v 12.5 2 3.5
v 12.5 0 11.5
v 12.5 2 11.5
v 11.5 2 11.5
v 11.5 0 11.5

vt 0 0
vt -1 0
vt 0 2
vt -1 2
vt 1 0
vt 1 2
vt 0 -1
vt 1 -1
vt -1 -1
vt -1 -9
vt 0 -9
vt -9 2
vt -9 0
vt 9 0
vt 9 2
vt 1 -9
vt -8 0
vt -8 -1
vt -8 2
vt 8 0
vt 8 2
vt 8 -1

vn 0 0 1
vn -1 0 0
vn 0 0 -1
vn 1 0 0
vn 0 1 0
vn 0 -1 0

usemtl GrayGreyboxing
f 3/3/1 4/4/1 2/2/1 1/1/1
f 7/3/2 8/4/2 6/2/2 5/1/2
f 11/6/3 12/3/3 10/1/3 9/5/3
f 14/6/4 3/3/4 1/1/4 13/5/4
f 14/7/5 15/8/5 4/5/5 3/1/5
f 1/1/6 2/2/6 16/9/6 13/7/6
f 9/10/6 10/11/6 13/7/6 16/9/6
f 11/12/2 9/13/2 16/2/2 15/4/2
f 10/14/4 12/15/4 14/6/4 13/5/4
f 12/11/5 11/16/5 15/8/5 14/7/5
f 5/17/6 6/18/6 16/9/6 2/2/6
f 7/19/1 5/17/1 2/2/1 4/4/1
f 6/20/3 8/21/3 15/6/3 16/5/3
f 8/22/5 7/20/5 4/5/5 15/8/5

