# ProBuilder 5.2.4
# https://unity3d.com/unity/features/worldbuilding/probuilder
# 5/6/2025 8:06:48 PM

mtllib ./Obstacle_E_01.mtl
o Obstacle_E_01

g Obstacle_E_01
v 9.5 0 3.5
v 3.5 0 3.5
v 9.5 2 3.5
v 3.5 2 3.5
v 3.5 0 2.5
v 3.5 2 2.5
v 9.5 0 2.5
v 9.5 2 2.5
v 10.5 0 2.5
v 10.5 0 3.5
v 10.5 2 2.5
v 10.5 2 3.5
v 9.5 0 14.5
v 9.5 2 14.5
v 10.5 0 14.5
v 10.5 2 14.5
v 9.5 0 9.5
v 9.5 2 9.5
v 10.5 0 9.5
v 10.5 2 9.5
v 3.5 0 9.5
v 3.5 2 9.5
v 3.5 0 10.5
v 3.5 2 10.5
v 10.5 0 10.5
v 9.5 0 10.5
v 9.5 2 10.5
v 10.5 2 10.5

vt 6 0
vt 0 0
vt 6 2
vt 0 2
vt 1 0
vt 1 2
vt -6 0
vt -6 2
vt -1 0
vt -1 2
vt -6 1
vt 0 1
vt 6 1
vt 7 0
vt 7 1
vt -7 2
vt -7 0
vt 7 2
vt -7 1
vt 7 7
vt 6 7
vt -6 7
vt -7 7
vt 8 0
vt 8 2
vt 7 8
vt 6 8
vt -6 8
vt -7 8
vt -8 2
vt -8 0
vt 0 8
vt 0 7
vt 12 0
vt 12 2
vt 7 12
vt 6 12
vt -6 12
vt -7 12
vt -12 2
vt -12 0

vn 0 0 1
vn -1 0 0
vn 0 0 -1
vn 1 0 0
vn 0 1 0
vn 0 -1 0

usemtl GrayGreyboxing
f 3/3/1 4/4/1 2/2/1 1/1/1
f 4/6/2 6/4/2 5/2/2 2/5/2
f 6/4/3 8/8/3 7/7/3 5/2/3
f 11/4/4 12/10/4 10/9/4 9/2/4
f 8/7/5 6/2/5 4/12/5 3/11/5
f 1/13/6 2/12/6 5/2/6 7/1/6
f 9/14/6 10/15/6 1/13/6 7/1/6
f 11/16/3 9/17/3 7/7/3 8/8/3
f 15/14/1 16/18/1 14/3/1 13/1/1
f 12/19/5 11/17/5 8/7/5 3/11/5
f 17/14/2 18/18/2 3/6/2 1/5/2
f 19/20/6 17/21/6 1/13/6 10/15/6
f 18/22/5 20/23/5 12/19/5 3/11/5
f 20/16/4 19/17/4 10/9/4 12/10/4
f 23/24/2 24/25/2 22/18/2 21/14/2
f 25/26/6 26/27/6 17/21/6 19/20/6
f 27/28/5 28/29/5 20/23/5 18/22/5
f 28/30/4 25/31/4 19/17/4 20/16/4
f 21/2/3 22/4/3 18/8/3 17/7/3
f 23/32/6 21/33/6 17/21/6 26/27/6
f 22/33/5 24/32/5 27/28/5 18/22/5
f 24/4/1 23/2/1 26/1/1 27/3/1
f 13/34/2 14/35/2 27/25/2 26/24/2
f 15/36/6 13/37/6 26/27/6 25/26/6
f 14/38/5 16/39/5 28/29/5 27/28/5
f 16/40/4 15/41/4 25/31/4 28/30/4

