# ProBuilder 5.2.4
# https://unity3d.com/unity/features/worldbuilding/probuilder
# 5/6/2025 8:05:18 PM

mtllib ./Obstacle_A_01.mtl
o Obstacle_A_01

g Obstacle_A_01
v 25.5 0 5.5
v 24.5 0 5.5
v 25.5 2 5.5
v 24.5 2 5.5
v 24.5 0 0
v 24.5 2 0
v 25.5 0 0
v 25.5 2 0

vt 0.5 -0.5
vt -0.5 -0.5
vt 0.5 1.5
vt -0.5 1.5
vt 1.5 -0.5
vt -4 -0.5
vt 1.5 1.5
vt -4 1.5
vt 4 -0.5
vt -1.5 -0.5
vt 4 1.5
vt -1.5 1.5
vt -0.5 -4
vt 0.5 -4

vn 0 0 1
vn -1 0 0
vn 0 0 -1
vn 1 0 0
vn 0 1 0
vn 0 -1 0

usemtl GrayGreyboxing
f 3/3/1 4/4/1 2/2/1 1/1/1
f 4/7/2 6/8/2 5/6/2 2/5/2
f 6/3/3 8/4/3 7/2/3 5/1/3
f 8/11/4 3/12/4 1/10/4 7/9/4
f 8/13/5 6/14/5 4/3/5 3/4/5
f 1/3/6 2/4/6 5/13/6 7/14/6

