# ProBuilder 5.2.4
# https://unity3d.com/unity/features/worldbuilding/probuilder
# 5/6/2025 8:05:31 PM

mtllib ./Obstacle_B_03.mtl
o Obstacle_B_03

g Obstacle_B_03
v 26.5 0 12.5
v 25.5 0 12.5
v 26.5 2 12.5
v 25.5 2 12.5
v 25.5 0 11.5
v 25.5 2 11.5
v 25.5 0 3.5
v 26.5 0 3.5
v 25.5 2 3.5
v 26.5 2 3.5
v 26.5 0 11.5
v 26.5 2 11.5

vt 0 0
vt -1 0
vt 0 2
vt -1 2
vt 1 0
vt 1 2
vt 0 -1
vt 1 -1
vt -1 -1
vt -1 -9
vt 0 -9
vt -9 2
vt -9 0
vt 9 0
vt 9 2
vt 1 -9

vn 0 0 1
vn -1 0 0
vn 0 0 -1
vn 1 0 0
vn 0 1 0
vn 0 -1 0

usemtl GrayGreyboxing
f 3/3/1 4/4/1 2/2/1 1/1/1
f 4/3/2 6/4/2 5/2/2 2/1/2
f 9/6/3 10/3/3 8/1/3 7/5/3
f 12/6/4 3/3/4 1/1/4 11/5/4
f 12/7/5 6/8/5 4/5/5 3/1/5
f 1/1/6 2/2/6 5/9/6 11/7/6
f 7/10/6 8/11/6 11/7/6 5/9/6
f 9/12/2 7/13/2 5/2/2 6/4/2
f 8/14/4 10/15/4 12/6/4 11/5/4
f 10/11/5 9/16/5 6/8/5 12/7/5

