# ProBuilder 5.2.4
# https://unity3d.com/unity/features/worldbuilding/probuilder
# 5/6/2025 8:06:58 PM

mtllib ./Obstacle_E_05.mtl
o Obstacle_E_05

g Obstacle_E_05
v 15.5 0 21.5
v 14.5 0 21.5
v 15.5 2 21.5
v 14.5 2 21.5
v 14.5 0 15
v 14.5 2 15
v 15.5 0 15
v 15.5 2 15

vt 0 0
vt -1 0
vt 0 2
vt -1 2
vt -6.5 0
vt -6.5 2
vt 1 0
vt 1 2
vt 6.5 0
vt 6.5 2
vt 0 -6.5
vt 1 -6.5
vt -1 -6.5

vn 0 0 1
vn -1 0 0
vn 0 0 -1
vn 1 0 0
vn 0 1 0
vn 0 -1 0

usemtl GrayGreyboxing
f 3/3/1 4/4/1 2/2/1 1/1/1
f 4/3/2 6/6/2 5/5/2 2/1/2
f 6/8/3 8/3/3 7/1/3 5/7/3
f 8/10/4 3/3/4 1/1/4 7/9/4
f 8/11/5 6/12/5 4/7/5 3/1/5
f 1/1/6 2/2/6 5/13/6 7/11/6

