# ProBuilder 6.0.4
# https://unity3d.com/unity/features/worldbuilding/probuilder
# 1/26/2025 9:02:18 PM

mtllib ./Obstacle_02.mtl
o Obstacle_02

g Obstacle_02
v -4.5 -1 3.5
v -10.5 -1 3.5
v -10.5 1 3.5
v -4.5 1 3.5
v -10.5 -1 -10.5
v -4.5 -1 -7.5
v -4.5 1 -7.5
v -10.5 1 -10.5
v 11.5 -1 3.5
v 7.5 -1 3.5
v 7.5 1 3.5
v 11.5 1 3.5
v 11.5 -1 0.5
v 11.5 1 0.5
v 7.5 1 -1.5
v 7.5 -1 -1.5
v 1.5 1 -4.5
v 1.5 -1 -4.5
v -10.5 -1 -3.5
v -10.5 1 -3.5
v 11.5 -1 1.5
v 11.5 1 1.5
v -4.5 1 -3.5
v -4.5 -1 -3.5
v 7.5 1 -0.5
v 7.5 -1 -0.5
v 1.5 1 -3.5
v 1.5 -1 -3.5
v -10.5 -1 0.5
v -10.5 1 0.5
v 11.5 1 2.5
v 11.5 -1 2.5
v -4.5 1 0.5
v -4.5 -1 0.5
v 7.5 1 0.5
v 7.5 -1 0.5
v 1.5 1 0.5
v 1.5 -1 0.5

vt -4.5 -1
vt -10.5 -1
vt -10.5 1
vt -4.5 1
vt 14.08723 -1
vt 7.379024 -1
vt 7.379024 1
vt 14.08723 1
vt 11.5 -1
vt 7.5 -1
vt 7.5 1
vt 11.5 1
vt -10.50952 -1
vt -10.50952 1
vt -6.037384 1
vt -6.037384 -1
vt 0.6708204 1
vt 0.6708204 -1
vt -3.5 -1
vt -3.5 1
vt -0.5 -1
vt -1.5 -1
vt -1.5 1
vt -0.5 1
vt 10.5 -10.5
vt 4.5 -7.5
vt 4.5 -3.5
vt 10.5 -3.5
vt -4.5 -3.5
vt -4.5 -7.5
vt -10.5 -10.5
vt -10.5 -3.5
vt -7.5 -1.5
vt -11.5 0.5
vt -11.5 1.5
vt -7.5 -0.5
vt 11.5 1.5
vt 11.5 0.5
vt 7.5 -1.5
vt 7.5 -0.5
vt -1.5 -4.5
vt -1.5 -3.5
vt 1.5 -3.5
vt 1.5 -4.5
vt 3.5 -1
vt 0.5 -1
vt 0.5 1
vt 3.5 1
vt -2.5 1
vt -2.5 -1
vt 4.5 0.5
vt 10.5 0.5
vt 4.5 3.5
vt 10.5 3.5
vt -10.5 3.5
vt -4.5 3.5
vt -4.5 0.5
vt -10.5 0.5
vt -11.5 2.5
vt -7.5 0.5
vt -11.5 3.5
vt -7.5 3.5
vt 7.5 3.5
vt 11.5 3.5
vt 11.5 2.5
vt 7.5 0.5
vt -1.5 0.5
vt 1.5 0.5
vt 1.5 1
vt 1.5 -1

vn 0 0 1
vn 0.4472136 0 -0.8944272
vn -1 0 0
vn 1 0 0
vn 0 1 0
vn 0 -1 0

usemtl ProBuilderDefault
f 4/4/1 3/3/1 2/2/1 1/1/1
f 5/5/2 8/8/2 7/7/2 6/6/2
f 12/12/1 11/11/1 10/10/1 9/9/1
f 16/16/2 15/15/2 14/14/2 13/13/2
f 18/18/2 17/17/2 15/15/2 16/16/2
f 6/6/2 7/7/2 17/17/2 18/18/2
f 20/20/3 8/3/3 5/2/3 19/19/3
f 13/21/4 14/24/4 22/23/4 21/22/4
f 23/27/5 7/26/5 8/25/5 20/28/5
f 19/32/6 5/31/6 6/30/6 24/29/6
f 22/35/5 14/34/5 15/33/5 25/36/5
f 26/40/6 16/39/6 13/38/6 21/37/6
f 27/42/5 17/41/5 7/26/5 23/27/5
f 25/36/5 15/33/5 17/41/5 27/42/5
f 24/29/6 6/30/6 18/44/6 28/43/6
f 28/43/6 18/44/6 16/39/6 26/40/6
f 3/48/3 30/47/3 29/46/3 2/45/3
f 30/47/3 20/20/3 19/19/3 29/46/3
f 32/50/4 31/49/4 12/20/4 9/19/4
f 21/22/4 22/23/4 31/49/4 32/50/4
f 33/51/5 23/27/5 20/28/5 30/52/5
f 3/54/5 4/53/5 33/51/5 30/52/5
f 29/58/6 34/57/6 1/56/6 2/55/6
f 29/58/6 19/32/6 24/29/6 34/57/6
f 31/59/5 22/35/5 25/36/5 35/60/5
f 11/62/5 12/61/5 31/59/5 35/60/5
f 36/66/6 32/65/6 9/64/6 10/63/6
f 36/66/6 26/40/6 21/37/6 32/65/6
f 35/60/5 25/36/5 27/42/5 37/67/5
f 38/68/6 28/43/6 26/40/6 36/66/6
f 24/1/1 28/70/1 27/69/1 23/4/1
f 34/21/4 24/45/4 23/48/4 33/24/4
f 1/19/4 34/21/4 33/24/4 4/20/4
f 28/19/3 38/46/3 37/47/3 27/20/3
f 38/70/1 36/10/1 35/11/1 37/69/1
f 36/46/3 10/45/3 11/48/3 35/47/3

