# ProBuilder 5.2.4
# https://unity3d.com/unity/features/worldbuilding/probuilder
# 5/6/2025 8:07:01 PM

mtllib ./Obstacle_E_06.mtl
o Obstacle_E_06

g Obstacle_E_06
v 21.5 0 15.5
v 19.5 0 15.5
v 21.5 2 15.5
v 19.5 2 15.5
v 19.5 0 14.5
v 19.5 2 14.5
v 21.5 0 14.5
v 21.5 2 14.5

vt 2 0
vt 0 0
vt 2 2
vt 0 2
vt -1 0
vt -1 2
vt -2 0
vt -2 2
vt 1 0
vt 1 2
vt -2 -1
vt 0 -1
vt 2 -1

vn 0 0 1
vn -1 0 0
vn 0 0 -1
vn 1 0 0
vn 0 1 0
vn 0 -1 0

usemtl GrayGreyboxing
f 3/3/1 4/4/1 2/2/1 1/1/1
f 4/4/2 6/6/2 5/5/2 2/2/2
f 6/4/3 8/8/3 7/7/3 5/2/3
f 8/10/4 3/4/4 1/2/4 7/9/4
f 8/11/5 6/12/5 4/2/5 3/7/5
f 1/1/6 2/2/6 5/12/6 7/13/6

