# ProBuilder 5.2.4
# https://unity3d.com/unity/features/worldbuilding/probuilder
# 5/6/2025 8:06:32 PM

mtllib ./Obstacle_D_12.mtl
o Obstacle_D_12

g Obstacle_D_12
v 2.499988 0 5.499999
v 2.499988 0 6.499999
v 2.499988 2 5.499999
v 2.499988 2 6.499999
v -1.198053E-05 0 6.5
v -1.198053E-05 2 6.5
v -1.233816E-05 0 5.5
v -1.233816E-05 2 5.5

vt 1 0
vt 0 0
vt 1 2
vt 0 2
vt 2 0
vt -0.5 0
vt 2 2
vt -0.5 2
vt -1 0
vt -1 2
vt 0.5 0
vt -2 0
vt 0.5 2
vt -2 2
vt -1 -0.5
vt 0 -0.5
vt 1 -0.5

vn 1 0 -2.384186E-07
vn 3.814697E-07 0 1
vn -1 0 3.576279E-07
vn -3.814696E-07 0 -1
vn 0 1 0
vn 0 -1 0

usemtl GrayGreyboxing
f 3/3/1 4/4/1 2/2/1 1/1/1
f 4/7/2 6/8/2 5/6/2 2/5/2
f 6/4/3 8/10/3 7/9/3 5/2/3
f 8/13/4 3/14/4 1/12/4 7/11/4
f 8/15/5 6/16/5 4/4/5 3/10/5
f 1/3/6 2/4/6 5/16/6 7/17/6

