# ProBuilder 5.2.4
# https://unity3d.com/unity/features/worldbuilding/probuilder
# 5/6/2025 8:07:06 PM

mtllib ./Obstacle_E_08.mtl
o Obstacle_E_08

g Obstacle_E_08
v 26.5 0 9.5
v 25.5 0 9.5
v 26.5 2 9.5
v 25.5 2 9.5
v 25.5 0 4.5
v 25.5 2 4.5
v 25.5 0 3.5
v 26.5 0 3.5
v 25.5 2 3.5
v 26.5 2 3.5
v 26.5 0 4.5
v 26.5 2 4.5
v 14.5 2 4.5
v 14.5 0 4.5
v 14.5 2 3.5
v 14.5 0 3.5
v 21.5 2 4.5
v 21.5 0 4.5
v 21.5 2 3.5
v 21.5 0 3.5
v 21.5 2 9.5
v 21.5 0 9.5
v 20.5 2 9.5
v 20.5 0 9.5
v 20.5 2 3.5
v 20.5 2 4.5
v 20.5 0 4.5
v 20.5 0 3.5
v 21.5 2 8.5
v 21.5 0 8.5
v 20.5 2 8.5
v 20.5 0 8.5
v 14.5 0 8.5
v 14.5 2 8.5
v 14.5 0 9.5
v 14.5 2 9.5

vt 1 0
vt 0 0
vt 1 2
vt 0 2
vt -5 0
vt -5 2
vt -1 0
vt -1 2
vt 5 0
vt 5 2
vt -1 -5
vt 0 -5
vt 1 -5
vt 0 -6
vt 1 -6
vt -6 2
vt -6 0
vt 6 0
vt 6 2
vt -1 -6
vt -4 2
vt -4 0
vt 4 -6
vt 4 -5
vt -4 -5
vt -4 -6
vt 4 0
vt 4 2
vt 5 -6
vt 5 -5
vt -5 -5
vt -5 -6
vt 5 -1
vt 4 -1
vt -4 -1
vt -5 -1
vt -11 2
vt -11 0
vt 11 -6
vt 11 -5
vt -11 -5
vt -11 -6
vt 11 0
vt 11 2
vt -11 -1
vt 11 -1

vn 0 0 1
vn -1 0 0
vn 0 0 -1
vn 1 0 0
vn 0 1 0
vn 0 -1 0

usemtl GrayGreyboxing
f 3/3/1 4/4/1 2/2/1 1/1/1
f 4/4/2 6/6/2 5/5/2 2/2/2
f 9/4/3 10/8/3 8/7/3 7/2/3
f 12/10/4 3/4/4 1/2/4 11/9/4
f 12/11/5 6/12/5 4/2/5 3/7/5
f 1/1/6 2/2/6 5/12/6 11/13/6
f 7/14/6 8/15/6 11/13/6 5/12/6
f 15/16/2 16/17/2 14/5/2 13/6/2
f 8/18/4 10/19/4 12/10/4 11/9/4
f 10/20/5 9/14/5 6/12/5 12/11/5
f 17/21/1 18/22/1 5/2/1 6/4/1
f 19/23/5 17/24/5 6/12/5 9/14/5
f 18/25/6 20/26/6 7/14/6 5/12/6
f 20/27/3 19/28/3 9/4/3 7/2/3
f 23/6/1 24/5/1 22/22/1 21/21/1
f 25/29/5 26/30/5 17/24/5 19/23/5
f 27/31/6 28/32/6 20/26/6 18/25/6
f 28/9/3 25/10/3 19/28/3 20/27/3
f 29/3/4 30/1/4 18/9/4 17/10/4
f 31/33/5 29/34/5 17/24/5 26/30/5
f 30/35/6 32/36/6 27/31/6 18/25/6
f 32/7/2 31/8/2 26/6/2 27/5/2
f 21/4/4 22/2/4 30/1/4 29/3/4
f 23/9/5 21/27/5 29/34/5 31/33/5
f 22/22/6 24/5/6 32/36/6 30/35/6
f 35/2/2 36/4/2 34/8/2 33/7/2
f 13/37/1 14/38/1 27/5/1 26/6/1
f 15/39/5 13/40/5 26/30/5 25/29/5
f 14/41/6 16/42/6 28/32/6 27/31/6
f 16/43/3 15/44/3 25/10/3 28/9/3
f 33/43/3 34/44/3 31/10/3 32/9/3
f 35/38/6 33/45/6 32/36/6 24/5/6
f 34/46/5 36/43/5 23/9/5 31/33/5
f 36/37/1 35/38/1 24/5/1 23/6/1

