# ProBuilder 5.2.4
# https://unity3d.com/unity/features/worldbuilding/probuilder
# 5/6/2025 8:06:56 PM

mtllib ./Obstacle_E_04.mtl
o Obstacle_E_04

g Obstacle_E_04
v 21.5 0 30
v 20.5 0 30
v 21.5 2 30
v 20.5 2 30
v 20.5 0 21.5
v 20.5 2 21.5
v 20.5 0 20.5
v 21.5 0 20.5
v 20.5 2 20.5
v 21.5 2 20.5
v 21.5 0 21.5
v 21.5 2 21.5
v 26.5 0 21.5
v 26.5 2 21.5
v 26.5 0 20.5
v 26.5 2 20.5
v 25.5 0 21.5
v 25.5 2 21.5
v 25.5 0 20.5
v 25.5 2 20.5
v 25.5 0 26.5
v 25.5 2 26.5
v 26.5 0 26.5
v 26.5 2 26.5
v 25.5 2 17.5
v 25.5 0 17.5
v 26.5 2 17.5
v 26.5 0 17.5

vt 0 0
vt -1 0
vt 0 2
vt -1 2
vt 0.5 0
vt -8 0
vt 0.5 2
vt -8 2
vt 1 0
vt 1 2
vt 8 0
vt -0.5 0
vt 8 2
vt -0.5 2
vt 0 0.5
vt 1 0.5
vt 0 -8
vt 1 -8
vt -1 -8
vt -1 0.5
vt -1 -9
vt 0 -9
vt -9 2
vt -9 0
vt 9 0
vt 9 2
vt 1 -9
vt 4 0
vt 4 2
vt 4 -9
vt 4 -8
vt -4 -8
vt -4 -9
vt -4 2
vt -4 0
vt 5 0
vt 5 2
vt 5 -9
vt 5 -8
vt -5 -8
vt -5 -9
vt -5 2
vt -5 0
vt -3 0
vt -3 2
vt 5 -3
vt 4 -3
vt -4 -3
vt -5 -3
vt 3 2
vt 3 0
vt -12 2
vt -12 0
vt -5 -12
vt -4 -12
vt 4 -12
vt 5 -12
vt 12 0
vt 12 2

vn 0 0 1
vn -1 0 0
vn 0 0 -1
vn 1 0 0
vn 0 1 0
vn 0 -1 0

usemtl GrayGreyboxing
f 3/3/1 4/4/1 2/2/1 1/1/1
f 4/7/2 6/8/2 5/6/2 2/5/2
f 9/10/3 10/3/3 8/1/3 7/9/3
f 12/13/4 3/14/4 1/12/4 11/11/4
f 12/17/5 6/18/5 4/16/5 3/15/5
f 1/15/6 2/20/6 5/19/6 11/17/6
f 7/21/6 8/22/6 11/17/6 5/19/6
f 9/23/2 7/24/2 5/6/2 6/8/2
f 15/25/4 16/26/4 14/13/4 13/11/4
f 10/22/5 9/27/5 6/18/5 12/17/5
f 17/28/1 18/29/1 12/3/1 11/1/1
f 19/30/6 17/31/6 11/17/6 8/22/6
f 18/32/5 20/33/5 10/22/5 12/17/5
f 20/34/3 19/35/3 8/1/3 10/3/3
f 23/36/1 24/37/1 22/29/1 21/28/1
f 15/38/6 13/39/6 17/31/6 19/30/6
f 14/40/5 16/41/5 20/33/5 18/32/5
f 27/42/3 28/43/3 26/35/3 25/34/3
f 21/44/2 22/45/2 18/8/2 17/6/2
f 23/46/6 21/47/6 17/31/6 13/39/6
f 22/48/5 24/49/5 14/40/5 18/32/5
f 24/50/4 23/51/4 13/11/4 14/13/4
f 25/52/2 26/53/2 19/24/2 20/23/2
f 27/54/5 25/55/5 20/33/5 16/41/5
f 26/56/6 28/57/6 15/38/6 19/30/6
f 28/58/4 27/59/4 16/26/4 15/25/4

